# xmcd CD database file
#
# Track frame offsets:
#	150
#	19564
#	53910
#	72637
#	120367
#	136240
#	151845
#	180172
#	204048
#	226367
#
# Disc length: 3196 seconds
#
# Revision: 0
# Processed by: cddbd v1.5.2PL0 Copyright (c) Steve Scherf et al.
# Submitted via: CDex 1.51
#
DISCID=730c7a0a
DTITLE=Sonido Isleño - Vive Jazz
DYEAR=2005
DGENRE=Jazz
TTITLE0=La Suegra
TTITLE1=East of El Son, Wes del Tres
TTITLE2=Taino
TTITLE3=Vive Jazz
TTITLE4=Heebaro
TTITLE5=Tambora
TTITLE6=Ornetteando
TTITLE7=M and D
TTITLE8=Green Mill Mambo
TTITLE9=Dialectics of a Soplapote
EXTD=YEAR: 2005
EXTT0=
EXTT1=
EXTT2=
EXTT3=
EXTT4=
EXTT5=
EXTT6=
EXTT7=
EXTT8=
EXTT9=
PLAYORDER=
